<?xml version="1.0" standalone="no"?>
<!DOCTYPE svg PUBLIC "-//W3C//DTD SVG 20010904//EN"
 "http://www.w3.org/TR/2001/REC-SVG-20010904/DTD/svg10.dtd">
<svg version="1.0" xmlns="http://www.w3.org/2000/svg"
 width="160.000000pt" height="160.000000pt" viewBox="0 0 160.000000 160.000000"
 preserveAspectRatio="xMidYMid meet">
<metadata>
Created by potrace 1.11, written by Peter Selinger 2001-2013
</metadata>
<g transform="translate(0.000000,160.000000) scale(0.100000,-0.100000)"
fill="#000000" stroke="none">
<path d="M393 1285 c-85 -15 -123 -35 -181 -93 -96 -98 -105 -139 -106 -515
-2 -283 0 -309 16 -324 12 -11 28 -14 53 -10 19 3 35 2 35 -3 0 -5 10 -7 23
-5 17 4 23 0 24 -15 1 -13 -3 -17 -13 -13 -8 3 -14 10 -14 16 0 6 -3 7 -7 4
-3 -4 -11 -2 -18 3 -8 7 -12 5 -12 -5 0 -8 2 -13 5 -10 2 2 17 -2 33 -11 29
-14 31 -13 33 15 1 8 7 16 15 19 9 3 11 0 7 -7 -10 -16 12 -41 29 -35 7 3 16
13 20 22 5 14 3 13 -14 -2 -22 -20 -38 -6 -22 21 7 12 11 13 11 5 0 -8 6 -12
13 -9 6 2 20 -3 30 -11 12 -11 21 -12 28 -5 8 8 6 11 -6 10 -10 -1 -20 3 -22
10 -4 12 14 12 33 1 10 -7 52 24 55 40 6 32 5 52 -3 52 -6 0 -7 7 -4 15 3 8 9
22 13 32 4 11 3 14 -6 8 -10 -6 -11 -3 -1 15 10 18 9 24 -1 31 -8 5 -9 9 -4 9
12 0 44 -20 32 -20 -4 0 -3 -10 4 -21 8 -15 8 -19 0 -15 -15 10 -14 -7 2 -23
10 -11 9 -13 -5 -8 -10 3 -20 1 -24 -5 -4 -6 -3 -8 4 -4 15 9 27 -14 24 -44
-2 -16 5 -33 18 -45 25 -22 50 -28 50 -12 1 7 8 1 16 -13 8 -14 13 -18 10 -9
-4 14 3 17 39 16 24 0 42 -3 40 -7 -6 -10 12 -33 28 -36 7 -1 14 4 14 12 0 11
-3 11 -16 1 -12 -10 -14 -9 -8 6 4 11 3 16 -3 12 -6 -3 -7 1 -3 10 4 12 8 13
13 5 4 -7 13 -9 20 -5 8 5 18 1 27 -10 11 -16 15 -17 26 -5 7 8 8 10 1 7 -7
-4 -15 0 -18 8 -5 13 -2 14 15 5 25 -14 69 11 69 38 0 10 6 24 13 31 7 8 7 11
1 8 -8 -5 -11 16 -11 71 1 43 -2 83 -6 89 -4 6 -3 15 3 18 8 5 7 11 -1 21 -6
8 -8 14 -3 14 10 0 11 57 1 67 -4 3 -2 12 4 20 9 10 8 13 -1 13 -9 0 -10 3 -1
13 8 10 7 17 -2 27 -6 7 -7 10 -2 7 6 -3 9 30 8 91 -1 67 2 91 8 79 8 -13 14
-15 30 -7 25 14 25 -1 0 -17 -15 -10 -21 -10 -24 0 -3 7 -4 2 -4 -10 1 -12 4
-20 8 -17 4 2 9 1 12 -3 2 -5 2 -3 1 4 -2 6 8 19 22 27 13 9 24 13 24 9 0 -5
5 -1 10 7 6 9 10 10 10 3 0 -12 37 -12 56 -1 5 4 16 3 24 -3 13 -8 13 -9 1 -9
-11 0 -12 -3 -3 -12 7 -7 8 -17 1 -30 -5 -10 -6 -18 -2 -18 5 0 8 -111 8 -247
-1 -245 -1 -248 22 -271 18 -17 27 -21 41 -13 10 5 24 6 32 1 7 -4 20 -6 28
-2 9 3 13 1 9 -4 -8 -13 8 -37 26 -40 11 -1 14 6 12 30 -2 17 -1 26 1 20 3 -7
21 -9 44 -7 30 4 41 1 46 -11 3 -9 10 -16 15 -16 6 0 4 10 -2 23 -9 17 -9 20
1 10 14 -13 63 3 54 18 -3 5 -1 9 4 9 11 0 8 63 -4 81 -4 7 -3 9 4 5 7 -4 10
1 9 14 -1 11 -5 20 -10 20 -5 0 -5 6 2 13 8 10 7 17 -2 27 -8 8 -8 11 0 6 12
-7 10 54 -3 75 -4 7 -3 9 4 5 7 -4 10 1 9 14 -1 11 -5 20 -10 20 -5 0 -5 6 2
13 8 10 7 17 -2 27 -8 8 -8 11 0 6 12 -7 10 54 -3 75 -4 7 -3 9 4 5 7 -4 10 1
9 14 -1 11 -5 20 -10 20 -5 0 -5 6 2 13 8 10 7 17 -2 27 -10 10 -9 11 2 5 11
-6 13 -4 7 10 -5 15 -4 16 8 5 9 -6 21 -10 28 -7 8 4 7 6 -4 6 -10 1 -18 6
-18 12 0 5 6 7 13 3 6 -4 9 -4 5 1 -4 4 -3 15 2 25 6 12 5 17 -6 17 -8 0 -13
-6 -10 -13 7 -18 -13 -29 -27 -15 -8 8 -8 11 1 11 7 0 12 5 12 11 0 5 -5 7
-12 3 -6 -4 -8 -3 -4 4 3 6 15 9 26 7 11 -2 20 -1 20 3 0 4 9 8 20 8 11 0 20
-3 20 -6 0 -3 11 -7 25 -8 14 -1 25 4 25 11 0 9 2 9 9 -1 6 -10 13 -11 34 -1
15 7 27 18 27 25 0 7 6 15 13 17 9 4 9 6 0 6 -7 1 -13 8 -13 18 0 15 1 15 18
0 16 -15 19 -15 19 -2 0 8 -2 13 -5 10 -2 -2 -10 2 -17 9 -9 9 -13 45 -13 116
-1 81 -4 106 -17 119 -14 14 -57 16 -351 16 -388 0 -363 7 -359 -100 1 -42 -2
-65 -9 -65 -7 0 -7 -3 -1 -8 6 -4 11 -15 12 -26 1 -12 -2 -15 -9 -8 -5 5 -11
22 -11 36 -1 14 -6 26 -11 26 -5 0 -7 3 -4 6 12 11 -77 95 -126 119 -28 14
-76 27 -106 30 -30 3 -59 7 -65 9 -5 2 -42 -3 -82 -9z m77 -345 c-15 -10 -15
-11 -1 -39 8 -14 9 -21 2 -17 -6 4 -11 3 -11 -3 0 -5 6 -11 13 -14 6 -3 2 -5
-9 -4 -19 1 -21 6 -19 47 3 54 2 51 21 43 11 -4 12 -8 4 -13z m684 -631 c-9
-15 -24 10 -17 29 5 12 7 12 15 -2 5 -9 6 -21 2 -27z"/>
<path d="M1541 1194 c0 -11 3 -14 6 -6 3 7 2 16 -1 19 -3 4 -6 -2 -5 -13z"/>
<path d="M1575 1181 c-3 -5 -2 -12 3 -15 5 -3 9 1 9 9 0 17 -3 19 -12 6z"/>
<path d="M1549 1163 c-6 -35 -4 -50 6 -50 6 0 12 6 12 13 0 7 -5 11 -10 7 -5
-3 -6 3 -2 16 3 11 4 21 1 21 -3 0 -7 -3 -7 -7z"/>
<path d="M1546 1089 c-7 -21 -4 -49 5 -44 4 3 5 15 2 28 -4 21 -4 22 11 3 9
-11 16 -15 16 -9 0 6 -7 16 -15 23 -12 10 -16 10 -19 -1z"/>
<path d="M1536 954 c-3 -9 -2 -12 5 -9 5 4 17 1 26 -7 15 -12 15 -11 2 10 -16
26 -25 28 -33 6z"/>
<path d="M965 930 c-4 -6 -11 -8 -16 -5 -5 3 -6 0 -3 -8 7 -20 30 -17 30 5 0
21 -2 22 -11 8z"/>
<path d="M1516 927 c3 -10 9 -15 12 -12 3 3 0 11 -7 18 -10 9 -11 8 -5 -6z"/>
<path d="M904 910 c0 -13 4 -16 10 -10 7 7 7 13 0 20 -6 6 -10 3 -10 -10z"/>
<path d="M1391 912 c0 -10 3 -12 5 -5 3 7 12 9 20 6 8 -3 14 -1 14 4 0 5 -9 9
-20 10 -13 1 -20 -4 -19 -15z"/>
<path d="M1444 908 l-19 -23 21 18 c19 16 22 16 34 2 9 -11 16 -13 24 -5 7 7
6 14 -3 23 -10 10 -11 8 -5 -8 7 -19 7 -19 -13 -2 -19 16 -21 16 -39 -5z"/>
<path d="M1540 919 c0 -5 5 -7 10 -4 6 3 10 8 10 11 0 2 -4 4 -10 4 -5 0 -10
-5 -10 -11z"/>
<path d="M870 910 c-13 -8 -12 -10 3 -10 9 0 17 5 17 10 0 12 -1 12 -20 0z"/>
<path d="M825 836 c0 -42 10 -75 11 -38 1 9 4 24 8 32 3 9 1 24 -7 33 -11 16
-12 12 -12 -27z"/>
<path d="M1340 819 c0 -5 5 -7 10 -4 6 3 10 8 10 11 0 2 -4 4 -10 4 -5 0 -10
-5 -10 -11z"/>
<path d="M846 758 c3 -5 10 -6 15 -3 13 9 11 12 -6 12 -8 0 -12 -4 -9 -9z"/>
<path d="M820 739 c0 -5 5 -7 10 -4 6 3 10 8 10 11 0 2 -4 4 -10 4 -5 0 -10
-5 -10 -11z"/>
<path d="M1350 735 c-14 -17 -5 -35 18 -34 15 1 15 2 0 6 -21 5 -23 14 -6 31
7 7 9 12 6 12 -3 0 -11 -7 -18 -15z"/>
<path d="M826 715 c-11 -8 -15 -15 -10 -15 6 0 19 7 30 15 10 8 15 14 9 14 -5
0 -19 -6 -29 -14z"/>
<path d="M832 683 c-5 -10 -8 -34 -7 -53 1 -19 -3 -38 -9 -42 -6 -4 -1 -6 11
-5 12 0 19 5 16 10 -2 4 1 16 9 25 11 15 11 15 -3 5 -13 -11 -16 -9 -16 17 0
16 3 27 7 25 3 -2 6 5 6 16 0 24 -3 24 -14 2z"/>
<path d="M1343 650 c5 -29 13 -33 13 -5 0 14 -4 25 -8 25 -4 0 -7 -9 -5 -20z"/>
<path d="M1350 575 c-14 -17 -5 -35 18 -34 15 1 15 2 0 6 -21 5 -23 14 -6 31
7 7 9 12 6 12 -3 0 -11 -7 -18 -15z"/>
<path d="M835 560 c3 -5 8 -10 11 -10 2 0 4 5 4 10 0 6 -5 10 -11 10 -5 0 -7
-4 -4 -10z"/>
<path d="M820 544 c0 -13 18 -39 24 -34 2 3 -2 14 -10 24 -8 11 -14 16 -14 10z"/>
<path d="M1343 490 c5 -29 13 -33 13 -5 0 14 -4 25 -8 25 -4 0 -7 -9 -5 -20z"/>
<path d="M827 487 c-3 -7 5 -19 16 -27 20 -12 21 -12 9 3 -8 9 -11 21 -7 27 3
5 2 10 -3 10 -6 0 -12 -6 -15 -13z"/>
<path d="M453 425 c0 -8 4 -12 9 -9 5 3 6 10 3 15 -9 13 -12 11 -12 -6z"/>
<path d="M830 430 c8 -5 20 -10 25 -10 6 0 3 5 -5 10 -8 5 -19 10 -25 10 -5 0
-3 -5 5 -10z"/>
<path d="M1350 415 c-14 -17 -5 -35 18 -34 15 1 15 2 0 6 -21 5 -23 14 -6 31
7 7 9 12 6 12 -3 0 -11 -7 -18 -15z"/>
<path d="M825 370 c1 -23 -2 -30 -12 -26 -8 3 -11 1 -8 -4 3 -6 1 -11 -4 -11
-6 -1 -15 -2 -20 -3 -19 -2 -34 -23 -22 -31 6 -3 10 -3 9 2 -3 8 5 13 23 13 5
0 7 -6 3 -12 -4 -8 -3 -10 2 -5 5 5 9 14 9 20 0 5 6 12 14 15 9 3 11 0 6 -9
-5 -8 1 -5 13 5 25 21 27 27 11 24 -6 -2 -14 3 -17 11 -3 9 0 11 8 6 9 -6 9
-3 1 14 -16 28 -18 27 -16 -9z"/>
<path d="M450 383 c0 -7 0 -16 -1 -20 0 -5 -11 -14 -25 -21 -20 -11 -23 -16
-14 -33 9 -17 30 -19 30 -3 0 3 -4 3 -9 0 -5 -3 -12 1 -15 9 -7 20 24 16 42
-5 11 -13 11 -11 2 8 -8 16 -8 27 -1 35 6 8 6 18 1 27 -7 10 -10 11 -10 3z"/>
<path d="M1315 337 c-16 -15 -23 -27 -15 -25 8 2 14 -3 13 -9 -2 -7 2 -13 8
-13 6 0 9 6 6 14 -3 7 1 24 10 35 22 32 12 31 -22 -2z"/>
<path d="M470 340 c0 -5 5 -10 11 -10 5 0 7 5 4 10 -3 6 -8 10 -11 10 -2 0 -4
-4 -4 -10z"/>
<path d="M1346 323 c-6 -14 -5 -15 5 -6 7 7 10 15 7 18 -3 3 -9 -2 -12 -12z"/>
<path d="M605 320 c-3 -5 -1 -10 4 -10 6 0 11 5 11 10 0 6 -2 10 -4 10 -3 0
-8 -4 -11 -10z"/>
<path d="M1085 320 c-3 -5 -1 -10 5 -10 6 0 8 -5 4 -12 -4 -7 -3 -8 4 -4 6 4
9 13 5 21 -6 18 -10 19 -18 5z"/>
<path d="M1205 320 c-3 -5 -2 -10 4 -10 5 0 13 5 16 10 3 6 2 10 -4 10 -5 0
-13 -4 -16 -10z"/>
<path d="M1237 315 c-4 -8 -3 -16 1 -19 4 -3 9 4 9 15 2 23 -3 25 -10 4z"/>
</g>
</svg>
